<svg width="26" height="26" viewBox="0 0 26 26" fill="none"
    xmlns="http://www.w3.org/2000/svg">
    <path d="M9.2685 11.1328C10.5978 13.4682 12.5318 15.4022 14.8672 16.7315L16.1195 14.9777C16.3209 14.6957 16.6187 14.4972 16.9565 14.42C17.2943 14.3427 17.6487 14.3919 17.9527 14.5583C19.9563 15.6533 22.169 16.3118 24.4452 16.4907C24.8005 16.5188 25.1321 16.6798 25.3739 16.9416C25.6158 17.2034 25.75 17.5467 25.75 17.9031V24.2242C25.7501 24.575 25.62 24.9133 25.385 25.1737C25.15 25.4341 24.8268 25.5981 24.4778 25.6338C23.727 25.7117 22.9705 25.75 22.2083 25.75C10.0817 25.75 0.25 15.9183 0.25 3.79167C0.25 3.0295 0.28825 2.273 0.366167 1.52217C0.401944 1.17324 0.565894 0.849988 0.826285 0.614981C1.08668 0.379975 1.42499 0.249924 1.77575 0.25H8.09692C8.4533 0.249955 8.7966 0.384231 9.05838 0.626055C9.32016 0.867879 9.48118 1.19948 9.50933 1.55475C9.68815 3.83104 10.3467 6.04371 11.4417 8.04733C11.6081 8.3513 11.6573 8.70572 11.58 9.04353C11.5028 9.38134 11.3043 9.67911 11.0223 9.8805L9.2685 11.1328ZM5.69567 10.2021L8.38733 8.27967C7.62344 6.6308 7.10008 4.88086 6.83325 3.08333H3.0975C3.089 3.3185 3.08475 3.55508 3.08475 3.79167C3.08333 14.3543 11.6457 22.9167 22.2083 22.9167C22.4449 22.9167 22.6815 22.9124 22.9167 22.9025V19.1667C21.1191 18.8999 19.3692 18.3766 17.7203 17.6127L15.7979 20.3043C15.0239 20.0036 14.2722 19.6485 13.5483 19.2418L13.4661 19.1951C10.6874 17.6137 8.38631 15.3126 6.80492 12.5339L6.75817 12.4517C6.35145 11.7278 5.9964 10.9761 5.69567 10.2021Z" fill="white"/>
</svg>
