<svg width="18" height="18" viewBox="0 0 18 18" fill="none"
    xmlns="http://www.w3.org/2000/svg">
    <path d="M14.0262 12.8475L17.5953 16.4158L16.4162 17.595L12.8478 14.0258C11.5201 15.0901 9.86866 15.669 8.16699 15.6666C4.02699 15.6666 0.666992 12.3066 0.666992 8.16663C0.666992 4.02663 4.02699 0.666626 8.16699 0.666626C12.307 0.666626 15.667 4.02663 15.667 8.16663C15.6694 9.86829 15.0905 11.5197 14.0262 12.8475ZM12.3545 12.2291C13.4121 11.1415 14.0027 9.68365 14.0003 8.16663C14.0003 4.94329 11.3895 2.33329 8.16699 2.33329C4.94366 2.33329 2.33366 4.94329 2.33366 8.16663C2.33366 11.3891 4.94366 14 8.16699 14C9.68402 14.0023 11.1419 13.4117 12.2295 12.3541L12.3545 12.2291Z" fill="#1C1C33"/>
</svg>
