<svg width="26" height="27" viewBox="0 0 26 27" fill="none"
    xmlns="http://www.w3.org/2000/svg">
    <path d="M25.5 19.2525C25.4994 20.9619 24.9151 22.6199 23.8438 23.952C22.7724 25.2841 21.2783 26.2104 19.6088 26.5775L18.8113 24.185C19.5415 24.0647 20.2361 23.7839 20.8447 23.3629C21.4534 22.9418 21.9611 22.3909 22.3313 21.75H19.25C18.587 21.75 17.9511 21.4866 17.4822 21.0178C17.0134 20.5489 16.75 19.913 16.75 19.25V14.25C16.75 13.587 17.0134 12.9511 17.4822 12.4822C17.9511 12.0134 18.587 11.75 19.25 11.75H22.9225C22.6175 9.33362 21.4411 7.11159 19.6143 5.50085C17.7874 3.8901 15.4356 3.00135 13 3.00135C10.5644 3.00135 8.21258 3.8901 6.38572 5.50085C4.55885 7.11159 3.38254 9.33362 3.0775 11.75H6.75C7.41304 11.75 8.04893 12.0134 8.51777 12.4822C8.98661 12.9511 9.25 13.587 9.25 14.25V19.25C9.25 19.913 8.98661 20.5489 8.51777 21.0178C8.04893 21.4866 7.41304 21.75 6.75 21.75H3C2.33696 21.75 1.70107 21.4866 1.23223 21.0178C0.763392 20.5489 0.5 19.913 0.5 19.25V13C0.5 6.09625 6.09625 0.5 13 0.5C19.9037 0.5 25.5 6.09625 25.5 13V19.2525ZM23 19.25V14.25H19.25V19.25H23ZM3 14.25V19.25H6.75V14.25H3Z" fill="#09CC66"/>
</svg>
