<svg width="16" height="18" viewBox="0 0 16 18" fill="none"
    xmlns="http://www.w3.org/2000/svg">
    <path d="M2.33366 11.5H4.00033V15.6666H14.0003V2.33329H4.00033V6.49996H2.33366V1.49996C2.33366 1.27895 2.42146 1.06698 2.57774 0.910704C2.73402 0.754423 2.94598 0.666626 3.16699 0.666626H14.8337C15.0547 0.666626 15.2666 0.754423 15.4229 0.910704C15.5792 1.06698 15.667 1.27895 15.667 1.49996V16.5C15.667 16.721 15.5792 16.9329 15.4229 17.0892C15.2666 17.2455 15.0547 17.3333 14.8337 17.3333H3.16699C2.94598 17.3333 2.73402 17.2455 2.57774 17.0892C2.42146 16.9329 2.33366 16.721 2.33366 16.5V11.5ZM7.33366 8.16663V5.66663L11.5003 8.99996L7.33366 12.3333V9.83329H0.666992V8.16663H7.33366Z" fill="#1C1C33"/>
</svg>
