<svg width="24" height="28" viewBox="0 0 24 28" fill="none"
    xmlns="http://www.w3.org/2000/svg">
    <path d="M1.72875 2.5325L12 0.25L22.2712 2.5325C22.5488 2.5942 22.7971 2.74871 22.975 2.97051C23.153 3.19231 23.25 3.46815 23.25 3.7525V16.2362C23.2499 17.4709 22.945 18.6865 22.3624 19.775C21.7797 20.8636 20.9373 21.7914 19.91 22.4762L12 27.75L4.09 22.4762C3.06284 21.7915 2.22058 20.8639 1.63794 19.7756C1.05529 18.6873 0.750295 17.472 0.75 16.2375V3.7525C0.750049 3.46815 0.847047 3.19231 1.02499 2.97051C1.20293 2.74871 1.45117 2.5942 1.72875 2.5325ZM3.25 4.755V16.2362C3.25001 17.0593 3.45322 17.8697 3.84158 18.5954C4.22994 19.3211 4.79144 19.9396 5.47625 20.3963L12 24.7463L18.5238 20.3963C19.2084 19.9398 19.7698 19.3214 20.1581 18.5959C20.5465 17.8705 20.7498 17.0604 20.75 16.2375V4.755L12 2.8125L3.25 4.755ZM12 12.75C11.1712 12.75 10.3763 12.4208 9.79029 11.8347C9.20424 11.2487 8.875 10.4538 8.875 9.625C8.875 8.7962 9.20424 8.00134 9.79029 7.41529C10.3763 6.82924 11.1712 6.5 12 6.5C12.8288 6.5 13.6237 6.82924 14.2097 7.41529C14.7958 8.00134 15.125 8.7962 15.125 9.625C15.125 10.4538 14.7958 11.2487 14.2097 11.8347C13.6237 12.4208 12.8288 12.75 12 12.75ZM6.40875 19C6.56028 17.623 7.2146 16.3503 8.24635 15.4259C9.2781 14.5015 10.6147 13.9903 12 13.9903C13.3853 13.9903 14.7219 14.5015 15.7537 15.4259C16.7854 16.3503 17.4397 17.623 17.5912 19H6.40875Z" fill="#09CC66"/>
</svg>
