<svg width="19" height="21" viewBox="0 0 19 21" fill="none"
    xmlns="http://www.w3.org/2000/svg">
    <path d="M4.47803 7V5C4.47803 3.67392 5.00481 2.40215 5.94249 1.46447C6.88018 0.526784 8.15195 0 9.47803 0C10.8041 0 12.0759 0.526784 13.0136 1.46447C13.9512 2.40215 14.478 3.67392 14.478 5V7H17.478C17.7432 7 17.9976 7.10536 18.1851 7.29289C18.3727 7.48043 18.478 7.73478 18.478 8V20C18.478 20.2652 18.3727 20.5196 18.1851 20.7071C17.9976 20.8946 17.7432 21 17.478 21H1.47803C1.21281 21 0.958457 20.8946 0.770921 20.7071C0.583384 20.5196 0.478027 20.2652 0.478027 20V8C0.478027 7.73478 0.583384 7.48043 0.770921 7.29289C0.958457 7.10536 1.21281 7 1.47803 7H4.47803ZM4.47803 9H2.47803V19H16.478V9H14.478V11H12.478V9H6.47803V11H4.47803V9ZM6.47803 7H12.478V5C12.478 4.20435 12.162 3.44129 11.5993 2.87868C11.0367 2.31607 10.2737 2 9.47803 2C8.68238 2 7.91932 2.31607 7.35671 2.87868C6.7941 3.44129 6.47803 4.20435 6.47803 5V7Z" fill="black"/>
</svg>
